<?xml version="1.0" encoding="utf-8"?>
<!-- Generator: Adobe Illustrator 27.5.0, SVG Export Plug-In . SVG Version: 6.00 Build 0)  -->
<svg version="1.1" xmlns="http://www.w3.org/2000/svg" xmlns:xlink="http://www.w3.org/1999/xlink" x="0px" y="0px"
	 viewBox="0 0 500 500" style="enable-background:new 0 0 500 500;" xml:space="preserve">
<g id="BACKGROUND">
	<rect style="fill:#1D0C3E;" width="500" height="500"/>
</g>
<g id="OBJECTS">
	<g>
		<defs>
			<rect id="SVGID_1_" width="500" height="500"/>
		</defs>
		<clipPath id="SVGID_00000078750539020352742350000012435283200333983675_">
			<use xlink:href="#SVGID_1_"  style="overflow:visible;"/>
		</clipPath>
		<g style="opacity:0.64;clip-path:url(#SVGID_00000078750539020352742350000012435283200333983675_);">
			<g>
				<path style="fill:#1D0C3E;" d="M121.223,148.369c2.174-21.363,4.327-43.153-0.245-64.135
					c-1.73-7.939-5.657-16.853-13.597-18.574c-4.392-0.952-9.026,0.679-12.643,3.346c-3.617,2.668-6.808,4.764-9.536,8.335
					c-2.645-6.355-3.898-13.19-5.944-19.762c-2.045-6.573-5.065-13.131-10.368-17.521c-5.302-4.39-13.334-6.045-19.18-2.411
					c-4.036,2.509-6.382,6.984-8.157,11.392c-8.803,21.859-6.51,45.669,4.046,66.737c-2.94-4.417-5.985-8.944-10.351-11.959
					c-4.366-3.015-10.424-4.204-14.992-1.506c-5.139,3.035-6.724,9.674-7.206,15.623c-2.491,30.719,12.241,61.819,37.924,78.856
					c-6.858-9.47-23.109-9.704-30.237-0.436c-7.263,9.444-4.111,23.169,1.197,33.835c14.616,29.373,43.738,51.075,76.063,56.685
					c10.288-21.396,18.181-44.447,25.344-67.081C130.414,197.44,118.85,171.697,121.223,148.369z"/>
				<path style="fill:none;stroke:#6028CF;stroke-miterlimit:10;" d="M92.272,263.75c-17.055-64.268-28.206-130.1-33.27-196.399"/>
				<path style="fill:none;stroke:#6028CF;stroke-miterlimit:10;" d="M32.076,123.669c6.139,17.515,20.519,31.94,38.014,38.134"/>
				<path style="fill:none;stroke:#6028CF;stroke-miterlimit:10;" d="M102.703,82.73c-4.24,21.248-18.131,40.373-37.026,50.975"/>
				<path style="fill:none;stroke:#6028CF;stroke-miterlimit:10;" d="M33.886,208.686c11.38,16.032,30.905,25.946,50.563,25.675"/>
			</g>
			<g>
				<path style="fill:#1D0C3E;" d="M24.211,220.788C8.368,206.293-7.831,191.56-27.394,182.705
					c-7.402-3.35-16.898-5.521-23.019-0.177c-3.385,2.956-4.843,7.647-4.861,12.141c-0.018,4.494-0.241,8.306,0.996,12.626
					c-6.678-1.671-12.91-4.745-19.404-7.026c-6.494-2.282-13.559-3.773-20.246-2.139c-6.687,1.634-12.809,7.09-13.382,13.95
					c-0.396,4.735,1.795,9.289,4.272,13.344c12.284,20.11,32.757,32.481,55.961,36.587c-5.299-0.278-10.748-0.537-15.774,1.167
					c-5.025,1.704-9.594,5.854-10.157,11.13c-0.632,5.935,3.749,11.169,8.234,15.107c23.161,20.334,56.906,27.076,85.905,16.639
					c-11.692-0.15-21.579,12.749-18.397,24.001c3.242,11.464,16.136,17.126,27.861,19.234c32.291,5.805,67.085-4.608,90.88-27.195
					c-11.026-21.025-24.81-41.116-38.695-60.373C69.068,242.702,41.511,236.616,24.211,220.788z"/>
				<path style="fill:none;stroke:#6028CF;stroke-miterlimit:10;" d="M99.506,312.884c-61.744-24.676-121.22-55.021-177.437-90.53"
					/>
				<path style="fill:none;stroke:#6028CF;stroke-miterlimit:10;" d="M-48.816,277.572c17.717,5.529,37.874,2.601,53.286-7.739"/>
				<path style="fill:none;stroke:#6028CF;stroke-miterlimit:10;" d="M-39.508,196.471c14.517,16.084,21.571,38.645,18.8,60.133"/>
				<path style="fill:none;stroke:#6028CF;stroke-miterlimit:10;" d="M20.477,326.863c19.655,0.438,39.264-9.31,50.78-25.244"/>
			</g>
			<g>
				<path style="fill:#1D0C3E;" d="M413.661,199.243c4.573-20.981,9.299-42.361,20.165-60.883
					c4.111-7.008,10.614-14.261,18.697-13.429c4.471,0.46,8.368,3.45,10.977,7.11c2.608,3.66,4.99,6.644,6.474,10.886
					c4.489-5.219,7.805-11.325,11.791-16.936c3.987-5.611,8.896-10.907,15.299-13.431c6.404-2.525,14.552-1.601,18.98,3.67
					c3.056,3.639,3.895,8.622,4.212,13.363c1.574,23.512-8.006,45.431-24.587,62.175c4.167-3.285,8.468-6.641,13.555-8.15
					c5.087-1.509,11.214-0.756,14.718,3.229c3.942,4.482,3.384,11.285,1.994,17.089c-7.18,29.972-30.848,54.953-60.554,63.165
					c9.462-6.87,24.981-2.042,28.875,8.983c3.968,11.233-3.293,23.299-11.653,31.787c-23.021,23.376-57.445,34.953-89.913,30.238
					c-3.129-23.533-3.468-47.896-3.241-71.636C389.674,243.028,408.667,222.153,413.661,199.243z"/>
				<path style="fill:none;stroke:#6028CF;stroke-miterlimit:10;" d="M405.319,317.909c36.184-55.785,67.243-114.891,92.661-176.334
					"/>
				<path style="fill:none;stroke:#6028CF;stroke-miterlimit:10;" d="M506.069,203.472c-11.278,14.74-29.429,23.981-47.983,24.431"
					/>
				<path style="fill:none;stroke:#6028CF;stroke-miterlimit:10;" d="M451.664,142.611c-2.574,21.513,4.686,44.008,19.35,59.958"/>
				<path style="fill:none;stroke:#6028CF;stroke-miterlimit:10;" d="M477.927,283.716c-15.799,11.701-37.438,15.057-56.039,8.689"
					/>
			</g>
			<g>
				<path style="fill:#1D0C3E;" d="M411.323,155.666c4.573-20.981,9.299-42.361,20.165-60.883
					c4.111-7.008,10.614-14.261,18.697-13.429c4.47,0.46,8.368,3.45,10.977,7.11s4.991,6.644,6.474,10.886
					c4.489-5.219,7.805-11.325,11.791-16.936c3.987-5.611,8.896-10.907,15.299-13.431c6.404-2.525,14.552-1.602,18.98,3.67
					c3.056,3.639,3.895,8.622,4.212,13.363c1.574,23.512-8.006,45.431-24.587,62.175c4.167-3.285,8.468-6.641,13.555-8.15
					c5.087-1.509,11.214-0.756,14.718,3.229c3.942,4.482,3.384,11.285,1.994,17.089c-7.18,29.972-30.848,54.953-60.554,63.165
					c9.462-6.87,24.98-2.042,28.875,8.983c3.968,11.234-3.293,23.299-11.653,31.787c-23.021,23.376-57.445,34.953-89.913,30.238
					c-3.129-23.533-3.468-47.896-3.241-71.636C387.336,199.45,406.329,178.576,411.323,155.666z"/>
				<path style="fill:none;stroke:#6028CF;stroke-miterlimit:10;" d="M402.982,274.332c36.184-55.785,67.243-114.891,92.661-176.334
					"/>
				<path style="fill:none;stroke:#6028CF;stroke-miterlimit:10;" d="M503.732,159.895c-11.278,14.74-29.429,23.981-47.983,24.431"
					/>
				<path style="fill:none;stroke:#6028CF;stroke-miterlimit:10;" d="M449.326,99.034c-2.574,21.513,4.686,44.009,19.35,59.958"/>
				<path style="fill:none;stroke:#6028CF;stroke-miterlimit:10;" d="M475.589,240.139c-15.799,11.701-37.438,15.057-56.039,8.689"
					/>
			</g>
			<g>
				<path style="fill:#1D0C3E;" d="M474.048,249.946c16.764-13.419,33.899-27.052,54.003-34.597
					c7.607-2.855,17.226-4.394,22.98,1.341c3.183,3.173,4.328,7.95,4.05,12.435c-0.278,4.486-0.307,8.304-1.826,12.533
					c6.773-1.227,13.194-3.883,19.825-5.732c6.631-1.848,13.778-2.871,20.343-0.799c6.564,2.071,12.313,7.92,12.433,14.802
					c0.083,4.751-2.403,9.151-5.143,13.033c-13.583,19.256-34.827,30.251-58.252,32.817c5.306,0.072,10.761,0.173,15.663,2.205
					c4.902,2.031,9.187,6.474,9.4,11.776c0.24,5.964-4.477,10.897-9.212,14.531c-24.451,18.762-58.568,23.264-86.815,10.937
					c11.676,0.622,20.691,14.144,16.774,25.162c-3.991,11.225-17.23,16.025-29.069,17.355c-32.603,3.663-66.635-9.022-88.889-33.129
					c12.389-20.251,27.467-39.391,42.592-57.69C427.843,268.854,455.742,264.599,474.048,249.946z"/>
				<path style="fill:none;stroke:#6028CF;stroke-miterlimit:10;" d="M392.844,336.876c63.237-20.55,124.585-46.908,183.02-78.632"
					/>
				<path style="fill:none;stroke:#6028CF;stroke-miterlimit:10;" d="M543.171,311.422c-18.043,4.348-37.963,0.098-52.66-11.237"/>
				<path style="fill:none;stroke:#6028CF;stroke-miterlimit:10;" d="M539.232,229.883c-15.547,15.091-24.072,37.138-22.724,58.762"
					/>
				<path style="fill:none;stroke:#6028CF;stroke-miterlimit:10;" d="M470.779,356.036c-19.642-0.859-38.564-11.879-49.004-28.538"
					/>
			</g>
		</g>
	</g>
	<rect y="388.977" style="fill:#281057;" width="500" height="111.023"/>
	<g>
		<path style="fill:#8BF6F1;" d="M370.425,150.357l13.658-13.658l-8.348-8.348c0.018-0.053,0.035-0.107,0.071-0.142l11.527-0.018
			v-19.288l-11.616,0c-0.036-0.107-0.089-0.195-0.124-0.266l8.046-8.046l-13.658-13.658l-8.046,8.046
			c-0.142-0.071-0.302-0.16-0.462-0.213V83.683L342.168,83.7v11.154c-0.213,0.071-0.391,0.178-0.586,0.266l-7.726-7.726
			l-13.658,13.658l7.886,7.886c-0.071,0.213-0.124,0.409-0.213,0.604h-10.905v19.324h11.367c0.071,0.142,0.142,0.284,0.195,0.444
			l-7.85,7.85l13.658,13.658l8.223-8.223c0.071,0.035,0.16,0.053,0.267,0.089l-0.018,11.385h19.324l0-11.829
			c0.053-0.018,0.089-0.053,0.124-0.053L370.425,150.357z M340.161,130.394c-6.483-6.483-6.483-16.997,0.018-23.498
			c6.483-6.483,16.997-6.483,23.48,0c6.5,6.5,6.501,17.015,0.018,23.498C357.176,136.894,346.661,136.894,340.161,130.394z"/>
		<path style="fill:#8BF6F1;" d="M372.627,87.789h10.329v-6.313c0.027-0.014,0.054-0.027,0.081-0.027l4.365,4.352l7.293-7.293
			l-4.392-4.392c0.027-0.054,0.04-0.107,0.054-0.148h6.085V63.639h-6.085c-0.027-0.081-0.054-0.175-0.094-0.255l4.191-4.191
			l-7.307-7.293l-4.218,4.218c-0.107-0.054-0.215-0.081-0.322-0.121v-5.843h-10.329v5.964c-0.108,0.054-0.202,0.108-0.309,0.148
			l-4.124-4.124l-7.307,7.307l4.298,4.298c-0.027,0.081-0.054,0.161-0.094,0.242h-5.937v10.329h6.219
			c0.013,0.04,0.04,0.081,0.067,0.134l-4.312,4.298l7.307,7.307l4.473-4.473c0.027,0.013,0.054,0.013,0.067,0.027V87.789z
			 M368.732,68.797c0-4.903,3.976-8.878,8.892-8.878c4.902,0,8.878,3.976,8.878,8.878c0,4.916-3.976,8.892-8.878,8.892
			C372.708,77.689,368.732,73.713,368.732,68.797z"/>
	</g>
	<g>
		<path style="fill:#FFFFFF;" d="M379.118,182.731h-8.122c-0.442,0-0.8-0.358-0.8-0.8l0,0c0-0.442,0.358-0.801,0.8-0.801h8.122
			c0.442,0,0.8,0.358,0.8,0.801l0,0C379.918,182.372,379.56,182.731,379.118,182.731z"/>
		<path style="fill:#FFFFFF;" d="M379.118,185.614h-8.122c-0.442,0-0.8-0.358-0.8-0.8l0,0c0-0.442,0.358-0.8,0.8-0.8h8.122
			c0.442,0,0.8,0.358,0.8,0.8l0,0C379.918,185.255,379.56,185.614,379.118,185.614z"/>
		<path style="fill:#FFFFFF;" d="M379.118,188.497h-8.122c-0.442,0-0.8-0.358-0.8-0.801l0,0c0-0.442,0.358-0.8,0.8-0.8h8.122
			c0.442,0,0.8,0.358,0.8,0.8l0,0C379.918,188.139,379.56,188.497,379.118,188.497z"/>
	</g>
	<g>
		<path style="fill:#FFFFFF;" d="M349.466,191.489h-84.348c-3.687,0-6.676-2.989-6.676-6.676l0,0c0-3.687,2.989-6.676,6.676-6.676
			h84.348c3.687,0,6.676,2.989,6.676,6.676l0,0C356.142,188.5,353.153,191.489,349.466,191.489z"/>
		<g>
			<path style="fill:none;stroke:#495AD6;stroke-miterlimit:10;" d="M348.486,184.353c0,1.961-1.589,3.55-3.55,3.55
				c-1.961,0-3.55-1.589-3.55-3.55c0-1.961,1.589-3.55,3.55-3.55C346.897,180.803,348.486,182.393,348.486,184.353z"/>
			
				<line style="fill:none;stroke:#495AD6;stroke-linecap:round;stroke-miterlimit:10;" x1="347.447" y1="186.863" x2="349.407" y2="188.823"/>
		</g>
	</g>
	<g>
		<g>
			<g>
				<ellipse style="fill:#010003;" cx="258.354" cy="417.113" rx="108.43" ry="10.078"/>
				<g>
					<rect x="228.157" y="346.776" style="fill:#5AA0F1;" width="60.393" height="67.827"/>
					<rect x="228.157" y="346.776" style="fill:#3A66B4;" width="60.393" height="23.575"/>
					<path style="fill:#3A66B4;" d="M314.998,417.113H201.709v-7.508c0-6.32,5.123-11.443,11.443-11.443h90.403
						c6.32,0,11.443,5.123,11.443,11.443V417.113z"/>
					<path style="fill:#5AA0F1;" d="M414.92,354.59H101.788c-6.103,0-11.05-4.947-11.05-11.05V146.794
						c0-6.102,4.947-11.05,11.05-11.05H414.92c6.102,0,11.05,4.947,11.05,11.05V343.54C425.97,349.643,421.022,354.59,414.92,354.59
						z"/>
					<path style="fill:#C7D2D7;" d="M99.611,341.261V149.073c0-2.461,1.995-4.456,4.455-4.456h308.574
						c2.461,0,4.456,1.995,4.456,4.456V341.26c0,2.461-1.995,4.456-4.456,4.456H104.067
						C101.606,345.717,99.611,343.722,99.611,341.261z"/>
				</g>
			</g>
			<g>
				<g>
					<g>
						<path style="fill:#3A66B4;" d="M221.594,258.868h-97.086c-1.217,0-2.203-0.986-2.203-2.203v-67.381
							c0-1.217,0.986-2.203,2.203-2.203h97.086c1.217,0,2.203,0.986,2.203,2.203v67.381
							C223.797,257.881,222.811,258.868,221.594,258.868z"/>
						<path style="fill:#FFFFFF;" d="M123.866,255.312v-60.661c0-0.959,0.777-1.736,1.736-1.736h94.896
							c0.959,0,1.736,0.777,1.736,1.736v60.661c0,0.959-0.777,1.736-1.736,1.736h-94.896
							C124.644,257.048,123.866,256.271,123.866,255.312z"/>
						<g>
							<circle style="fill:#FFFFFF;" cx="220.07" cy="190" r="1.434"/>
							<circle style="fill:#FFFFFF;" cx="215.331" cy="190" r="1.434"/>
							<path style="fill:#FFFFFF;" d="M212.027,190c0,0.792-0.642,1.434-1.434,1.434c-0.792,0-1.434-0.642-1.434-1.434
								c0-0.792,0.642-1.434,1.434-1.434C211.385,188.566,212.027,189.208,212.027,190z"/>
						</g>
					</g>
					<path style="fill:#3A66B4;" d="M139.407,204.395c0,3.202-2.596,5.799-5.799,5.799c-3.202,0-5.799-2.596-5.799-5.799
						c0-3.202,2.596-5.799,5.799-5.799C136.811,198.596,139.407,201.192,139.407,204.395z"/>
					<g>
						<rect x="142.071" y="198.641" style="fill:#CCFFFD;" width="74.695" height="2.739"/>
						<rect x="142.071" y="203.025" style="fill:#CCFFFD;" width="47.078" height="2.739"/>
						<rect x="142.071" y="207.679" style="fill:#CCFFFD;" width="30.601" height="2.739"/>
					</g>
					<path style="fill:#5AA0F1;" d="M139.407,222.862c0,3.202-2.596,5.799-5.799,5.799c-3.202,0-5.799-2.596-5.799-5.799
						c0-3.202,2.596-5.799,5.799-5.799C136.811,217.063,139.407,219.659,139.407,222.862z"/>
					<g>
						<rect x="142.071" y="217.109" style="fill:#CCFFFD;" width="74.695" height="2.739"/>
						<rect x="142.071" y="221.492" style="fill:#CCFFFD;" width="47.078" height="2.739"/>
						<rect x="142.071" y="226.146" style="fill:#CCFFFD;" width="30.601" height="2.739"/>
					</g>
					<path style="fill:#8BF6F1;" d="M139.407,241.329c0,3.202-2.596,5.799-5.799,5.799c-3.202,0-5.799-2.596-5.799-5.799
						c0-3.202,2.596-5.799,5.799-5.799C136.811,235.53,139.407,238.126,139.407,241.329z"/>
					<g>
						<rect x="142.071" y="235.576" style="fill:#CCFFFD;" width="74.695" height="2.739"/>
						<rect x="142.071" y="239.959" style="fill:#CCFFFD;" width="47.078" height="2.739"/>
						<rect x="142.071" y="244.613" style="fill:#CCFFFD;" width="30.601" height="2.739"/>
					</g>
				</g>
				<g>
					<g>
						<g>
							<path style="fill:#3A66B4;" d="M318.28,327.449h-85.008c-1.244,0-2.253-1.008-2.253-2.253v-57.665
								c0-1.244,1.009-2.252,2.253-2.252h85.008c1.244,0,2.253,1.008,2.253,2.252v57.665
								C320.533,326.441,319.524,327.449,318.28,327.449z"/>
							<path style="fill:#FFFFFF;" d="M232.372,324.443v-52.681c0-0.79,0.64-1.43,1.43-1.43h83.947c0.79,0,1.43,0.64,1.43,1.43
								v52.681c0,0.79-0.64,1.43-1.43,1.43h-83.947C233.012,325.873,232.372,325.233,232.372,324.443z"/>
							<g>
								<path style="fill:#FFFFFF;" d="M318.547,267.807c0,0.686-0.556,1.242-1.242,1.242c-0.686,0-1.242-0.556-1.242-1.242
									c0-0.686,0.556-1.242,1.242-1.242C317.991,266.565,318.547,267.121,318.547,267.807z"/>
								<path style="fill:#FFFFFF;" d="M314.443,267.807c0,0.686-0.556,1.242-1.242,1.242s-1.242-0.556-1.242-1.242
									c0-0.686,0.556-1.242,1.242-1.242S314.443,267.121,314.443,267.807z"/>
								<path style="fill:#FFFFFF;" d="M310.339,267.807c0,0.686-0.556,1.242-1.242,1.242c-0.686,0-1.242-0.556-1.242-1.242
									c0-0.686,0.556-1.242,1.242-1.242C309.783,266.565,310.339,267.121,310.339,267.807z"/>
							</g>
						</g>
						<g>
							
								<ellipse transform="matrix(0.1398 -0.9902 0.9902 0.1398 -57.9522 529.4961)" style="fill:#5AA0F1;" cx="275.776" cy="298.102" rx="12.895" ry="12.895"/>
							<polygon style="fill:#FFFFFF;" points="283.318,298.103 277.349,301.549 271.379,304.995 271.379,298.103 271.379,291.21 
								277.349,294.656 							"/>
						</g>
						<g>
							<rect x="232.372" y="320.053" style="fill:#CCFFFD;" width="86.808" height="1.709"/>
							<rect x="232.372" y="320.053" style="fill:#8BF6F1;" width="19.556" height="1.709"/>
							<path style="fill:#8BF6F1;" d="M253.24,320.907c0,0.725-0.587,1.312-1.312,1.312c-0.725,0-1.312-0.587-1.312-1.312
								s0.587-1.312,1.312-1.312C252.653,319.595,253.24,320.183,253.24,320.907z"/>
						</g>
					</g>
				</g>
				<g>
					<path style="fill:none;stroke:#FFFFFF;stroke-width:0.8956;stroke-miterlimit:10;" d="M157.937,322.694h-26.629
						c-3.949,0-7.151-3.202-7.151-7.151v-26.629c0-3.949,3.201-7.151,7.151-7.151h26.629c3.949,0,7.151,3.201,7.151,7.151v26.629
						C165.088,319.492,161.886,322.694,157.937,322.694z"/>
					<path style="fill:none;stroke:#FFFFFF;stroke-width:0.8956;stroke-miterlimit:10;" d="M213.198,322.172h-26.629
						c-3.949,0-7.151-3.201-7.151-7.151v-26.629c0-3.949,3.202-7.151,7.151-7.151h26.629c3.949,0,7.151,3.201,7.151,7.151v26.629
						C220.349,318.971,217.147,322.172,213.198,322.172z"/>
					<g>
						
							<polyline style="fill:none;stroke:#FFFFFF;stroke-width:1.6716;stroke-linecap:round;stroke-linejoin:round;stroke-miterlimit:10;" points="
							138.238,296.308 132.341,302.205 138.284,308.148 						"/>
						
							<polyline style="fill:none;stroke:#FFFFFF;stroke-width:1.6716;stroke-linecap:round;stroke-linejoin:round;stroke-miterlimit:10;" points="
							151.007,296.308 156.904,302.205 150.961,308.148 						"/>
						
							<line style="fill:none;stroke:#FFFFFF;stroke-width:1.6716;stroke-linecap:round;stroke-linejoin:round;stroke-miterlimit:10;" x1="147.384" y1="296.308" x2="141.861" y2="308.148"/>
					</g>
				</g>
				<g>
					<path style="fill:#3A66B4;" d="M336.294,244.551c-2.709,0-4.913-2.204-4.913-4.913v-44.693c0-2.709,2.204-4.913,4.913-4.913
						h56.403c2.709,0,4.913,2.204,4.913,4.913v44.693c0,2.709-2.204,4.913-4.913,4.913H336.294z"/>
					<g>
						<path style="fill:#FFFFFF;" d="M393.845,192.981c0,0.669-0.543,1.212-1.212,1.212s-1.212-0.543-1.212-1.212
							c0-0.67,0.543-1.212,1.212-1.212S393.845,192.311,393.845,192.981z"/>
						<path style="fill:#FFFFFF;" d="M389.84,192.981c0,0.669-0.543,1.212-1.212,1.212s-1.212-0.543-1.212-1.212
							c0-0.67,0.543-1.212,1.212-1.212S389.84,192.311,389.84,192.981z"/>
						<path style="fill:#FFFFFF;" d="M385.835,192.981c0,0.669-0.543,1.212-1.212,1.212c-0.67,0-1.212-0.543-1.212-1.212
							c0-0.67,0.543-1.212,1.212-1.212C385.293,191.768,385.835,192.311,385.835,192.981z"/>
					</g>
					<path style="fill:#8BF6F1;" d="M396.289,200.093v39.352c0,2.136-1.73,3.866-3.866,3.866h-55.855
						c-2.131,0-3.866-1.73-3.866-3.866v-39.352c0-2.136,1.734-3.866,3.866-3.866h55.855
						C394.559,196.227,396.289,197.957,396.289,200.093z"/>
					<circle style="fill:#5AA0F1;" cx="383.411" cy="208.661" r="9.215"/>
					<path style="fill:#FFFFFF;" d="M370.079,243.311h-33.511c-2.131,0-3.866-1.73-3.866-3.866v-6.196l14.664-25.402
						c0.766-1.328,2.684-1.328,3.45,0l11.073,19.178l8.223,14.244C370.509,241.95,370.448,242.725,370.079,243.311z"/>
					<path style="fill:#F0F4FF;" d="M384.531,243.311h-32.046l9.404-16.285l5.066-8.776c0.69-1.196,2.415-1.196,3.105,0
						L384.531,243.311z"/>
				</g>
				<g>
					<g>
						<rect x="233.355" y="194.793" style="fill:#FFFFFF;" width="75.991" height="6.052"/>
						<rect x="233.355" y="205.94" style="fill:#FFFFFF;" width="21.838" height="3.026"/>
						<rect x="258.172" y="205.94" style="fill:#FFFFFF;" width="8.862" height="3.026"/>
						<rect x="270.438" y="205.94" style="fill:#FFFFFF;" width="23.256" height="3.026"/>
						<rect x="295.532" y="205.94" style="fill:#FFFFFF;" width="13.814" height="3.026"/>
						<rect x="233.355" y="213.483" style="fill:#FFFFFF;" width="28.787" height="3.026"/>
						<rect x="265.333" y="213.483" style="fill:#FFFFFF;" width="11.202" height="3.026"/>
						<rect x="279.089" y="213.483" style="fill:#FFFFFF;" width="11.202" height="3.026"/>
						<rect x="292.021" y="213.483" style="fill:#FFFFFF;" width="14.224" height="3.026"/>
						<rect x="233.355" y="221.026" style="fill:#FFFFFF;" width="8.011" height="3.026"/>
						<rect x="270.934" y="221.026" style="fill:#FFFFFF;" width="14.393" height="3.026"/>
						<rect x="243.211" y="221.026" style="fill:#FFFFFF;" width="25.312" height="3.026"/>
						<rect x="233.355" y="228.569" style="fill:#FFFFFF;" width="18.151" height="3.026"/>
						<rect x="254.626" y="228.569" style="fill:#FFFFFF;" width="6.097" height="3.026"/>
						<rect x="263.561" y="228.569" style="fill:#FFFFFF;" width="11.982" height="3.026"/>
						<rect x="288.251" y="220.323" style="fill:#FFFFFF;" width="18.151" height="3.026"/>
						<rect x="233.355" y="236.111" style="fill:#FFFFFF;" width="6.948" height="3.026"/>
						<rect x="242.927" y="236.111" style="fill:#FFFFFF;" width="15.245" height="3.026"/>
						<rect x="279.089" y="228.568" style="fill:#FFFFFF;" width="6.948" height="3.026"/>
						<rect x="288.661" y="228.568" style="fill:#FFFFFF;" width="15.245" height="3.026"/>
					</g>
				</g>
				<g>
					<g>
						<g>
							<g>
								<g>
									<polygon style="fill:#FFFFFF;" points="371.559,303.776 353.396,303.776 353.396,302.874 370.657,302.874 370.657,285.613 
										371.559,285.613 									"/>
								</g>
							</g>
							<g>
								<g>
									<polygon style="fill:#FFFFFF;" points="336.135,285.613 335.233,285.613 335.233,267.449 353.396,267.449 353.396,268.352 
										336.135,268.352 									"/>
								</g>
							</g>
						</g>
						<g>
							<rect x="343.804" y="276.021" style="fill:#FFFFFF;" width="19.183" height="19.183"/>
						</g>
					</g>
					<g>
						<g>
							<rect x="335.233" y="309.455" style="fill:#FFFFFF;" width="26.191" height="2.666"/>
						</g>
						<g>
							<rect x="335.233" y="314.564" style="fill:#FFFFFF;" width="55.095" height="2.666"/>
						</g>
						<g>
							<rect x="335.233" y="319.673" style="fill:#FFFFFF;" width="55.095" height="2.666"/>
						</g>
						<g>
							<rect x="335.233" y="324.783" style="fill:#FFFFFF;" width="41.092" height="2.666"/>
						</g>
					</g>
					<g>
						<g>
							<rect x="379.949" y="267.335" style="fill:#FFFFFF;" width="0.754" height="36.557"/>
						</g>
						<g>
							<rect x="384.408" y="269.666" style="fill:#FFFFFF;" width="2.387" height="1.508"/>
						</g>
						<g>
							<rect x="389.685" y="269.666" style="fill:#FFFFFF;" width="8.543" height="1.508"/>
						</g>
						<g>
							<rect x="384.408" y="273.042" style="fill:#FFFFFF;" width="2.387" height="1.508"/>
						</g>
						<g>
							<rect x="389.685" y="273.042" style="fill:#FFFFFF;" width="8.543" height="1.508"/>
						</g>
						<g>
							<rect x="384.408" y="276.419" style="fill:#FFFFFF;" width="2.387" height="1.508"/>
						</g>
						<g>
							<rect x="389.685" y="276.419" style="fill:#FFFFFF;" width="8.543" height="1.508"/>
						</g>
						<g>
							<rect x="384.408" y="283.171" style="fill:#FFFFFF;" width="2.387" height="1.508"/>
						</g>
						<g>
							<rect x="389.685" y="283.171" style="fill:#FFFFFF;" width="8.543" height="1.508"/>
						</g>
						<g>
							<rect x="384.408" y="286.547" style="fill:#FFFFFF;" width="2.387" height="1.507"/>
						</g>
						<g>
							<rect x="389.685" y="286.547" style="fill:#FFFFFF;" width="8.543" height="1.507"/>
						</g>
						<g>
							<rect x="384.408" y="289.923" style="fill:#FFFFFF;" width="2.387" height="1.508"/>
						</g>
						<g>
							<rect x="389.685" y="289.923" style="fill:#FFFFFF;" width="8.543" height="1.508"/>
						</g>
						<g>
							<rect x="384.408" y="296.676" style="fill:#FFFFFF;" width="2.387" height="1.508"/>
						</g>
						<g>
							<rect x="389.685" y="296.676" style="fill:#FFFFFF;" width="8.543" height="1.508"/>
						</g>
						<g>
							<rect x="384.408" y="300.051" style="fill:#FFFFFF;" width="2.387" height="1.508"/>
						</g>
						<g>
							<rect x="389.685" y="300.051" style="fill:#FFFFFF;" width="8.543" height="1.508"/>
						</g>
					</g>
				</g>
			</g>
		</g>
		<g>
			<ellipse style="fill:#010003;" cx="146.982" cy="435.336" rx="72.952" ry="6.781"/>
			<g>
				<path style="fill:#E49191;" d="M203.046,307.991l6.815-6.987c0,0,0.236-3.116,0.607-3.773c0.371-0.657,1.33-3.091,1.807-3.356
					c0.478-0.265,1.433,0,1.433,0s0.947-0.318,1.371-0.318c0.425,0,1.219,0.388,1.219,0.388s1.019-0.069,1.443-0.069
					c0.425,0,0.561,0.119,0.561,0.119s1.643-1.89,2.439-2.526c0.796-0.637,2.013-1.809,2.374-1.805
					c0.34,0.004,0.49,0.602,0.242,1.239c-0.248,0.637-1.326,1.664-1.326,1.664l-3.105,4.706c0,0,0.531-0.212,0.814-0.389
					c0.283-0.177,2.176-1.946,2.291-2.017c0.115-0.071,0.964-0.637,1.459-0.071c0.495,0.566-3.251,5.054-3.852,5.655
					c-0.602,0.602-4.045,2.345-4.045,2.345s-3.636,6.54-3.99,6.965C211.25,310.184,203.046,307.991,203.046,307.991z"/>
				<path style="fill:#E49191;" d="M209.46,275.738c0,0-3.807,22.052-7.39,22.564c0,0-14.305,0.577-17.491-16.776
					c-2.764-15.049,8.321-18.259,13.506-17.107C203.27,265.57,210.574,266.318,209.46,275.738z"/>
				<path style="fill:#E49191;" d="M196.818,294.775c0,0-2.005,2.702-2.707,9.245c0,0-5.957,0.852-11.45-1.977
					c0,0,2.96-9.23,3.323-19.25"/>
				<path style="fill:#3A66B4;" d="M192.784,260.727c-7.817,1.727-7.192,6.597-7.192,6.597c-3.66,0.906-4.446,2.417-4.416,9.172
					c0.03,6.756,2.475,14.868,3.823,15.528c1.348,0.66,8.99,0.692,9.628,0.46c0.638-0.232,3.312-6.429,2.689-7.52
					c-0.624-1.09,0.031-5.378,1.811-5.54c1.78-0.163,1.431,2.597,1.431,2.597l1.463-0.321l1.129-2.77
					c10.33,0.615,12.999-11.157,12.999-11.157C213.668,266.154,200.601,259,192.784,260.727z"/>
				<path style="fill:#E5918F;" d="M106.01,410.01l7.904,1.143l-2.618,9.229l-8.56-2.159c0,0-3.483-4.721,1.776-8.213
					C104.765,409.842,105.595,409.916,106.01,410.01z"/>
				<path style="fill:#A0A9AD;" d="M165.004,386.305l-11.65-35.274c0,0-3.531-1.258-5.34,0c0,0-12.136,6.526-10.841,25.134
					c0.976,14.028,3.938,29.243,5.138,35.344l-31.082-1.149c0,0-3.835,4.558-1.354,10.491c0,0,39.056,10.503,44.557,11.474
					c4.471,0.789,9.365,1.397,11.728-0.627C170.323,428.13,165.004,386.305,165.004,386.305z"/>
				<path style="fill:#E5918F;" d="M142.811,410.01l7.904,1.143l-2.618,9.229l-8.56-2.159c0,0-3.483-4.721,1.776-8.213
					C141.566,409.842,142.396,409.916,142.811,410.01z"/>
				<path style="fill:#8BF6F1;" d="M139.943,414.849c-0.177,1.817,1.413,3.454,1.122,3.907c-0.291,0.453-5.604,9.367-5.604,9.367
					s4.011,1.747,3.364,4.27h-10.158c0,0-2.653-2.394-2.588-5.823c0,0,0.69-3.947,2.502-7.44c1.812-3.494,5.93-11.382,5.93-11.382
					s1.25-0.505,3.386,0.065c2.502,0.667,4.914,2.198,4.914,2.198S140.379,410.359,139.943,414.849z"/>
				<path style="fill:#C7D2D7;" d="M221.313,424.287c-2.508-9.358-26.105-49.309-34.088-60.096
					c-16.396-7.12-33.872-13.16-33.872-13.16c-7.227,1.726-10.787,16.289-6.688,25.997c2.812,6.661,20.652,23.424,31.577,33.293
					l-30.317-0.037c0,0-3.571,5.339-0.335,10.409c0,0,50.422,11.464,54.844,12.112c4.423,0.647,14.347,0,14.347,0
					S223.425,432.165,221.313,424.287z"/>
				<path style="fill:#8BF6F1;" d="M103.141,414.849c-0.177,1.817,1.413,3.454,1.122,3.907c-0.291,0.453-5.604,9.367-5.604,9.367
					s4.011,1.747,3.364,4.27H91.866c0,0-2.653-2.394-2.588-5.823c0,0,0.69-3.947,2.502-7.44c1.812-3.494,5.93-11.382,5.93-11.382
					s1.25-0.505,3.386,0.065c2.501,0.667,4.914,2.198,4.914,2.198S103.578,410.359,103.141,414.849z"/>
				<path style="fill:#E49191;" d="M259.273,301.201l-16.261,28.603l-11.645-11.608l-9.639,14.348l2.799,1.344l-1.007,0.838
					c0,0,22.474,10.945,25.167,8.53c2.693-2.415,15.241-38.804,15.241-38.804L259.273,301.201z"/>
				<path style="fill:#5AA0F1;" d="M233.443,320.012c0,0-3.07,12.95-9.21,19.09l-15.71-5.98c0,0-7.29,12.26-14.42,21.66
					c-2.74,3.63-3.65,8.74-6.87,9.41c-0.2-0.07-0.39-0.13-0.59-0.18c-8.73-2.62-21.61,0.16-32.24-3.79
					c-11.74-4.37-9.46-6.83-9.46-6.83s7.12-12.83,11.16-26.42c1.8-6.01,3.05-11.58,3.88-15.93c1.49-7.7,7.66-13.72,15.44-14.77
					c0.09-0.01,0.17-0.03,0.26-0.04c8.9-1.13,32.2,1.62,36.73,3.56S233.443,320.012,233.443,320.012z"/>
				<path style="fill:#3A66B4;" d="M208.523,333.121c0,0-7.29,12.26-14.42,21.66c-2.74,3.63-3.65,8.74-6.87,9.41
					c1.41-0.5,3.75-7.92,4.58-9.59c0.84-1.66,2.17-3.33,5.05-9.16c2.87-5.84,6.766-14.399,6.766-14.399L208.523,333.121z"/>
				<g>
					<path d="M178.243,410.321c2.649-0.461,5.349-0.369,8-0.023c1.325,0.186,2.642,0.448,3.93,0.821
						c1.294,0.344,2.544,0.859,3.742,1.454l-3.923-0.643c-1.299-0.202-2.592-0.413-3.894-0.578
						C183.497,410.98,180.894,410.698,178.243,410.321z"/>
				</g>
				<path style="fill:#E49191;" d="M271.426,290.672c-0.262-0.026-1.929,1.312-2.734,1.973l0.927-1.776c0,0,1.226-1.184,1.667-1.834
					c0.441-0.65,0.209-1.3-0.139-1.335c-0.245-0.024-1.712,1.139-2.561,1.832l0.187-0.357c0,0,1.226-1.184,1.667-1.834
					c0.441-0.65,0.209-1.3-0.139-1.335c-0.348-0.035-3.169,2.333-3.169,2.333l-1.374,1.839l1.036-2.012c0,0,0.546-0.667,0.909-1.394
					c0.364-0.727,0.101-0.949-0.101-1.192s-2.101,1.172-2.586,1.737c-0.485,0.566-2.02,2.859-2.141,3.182l-1.587,3.283
					c-0.101-0.951-0.261-2.579-0.373-3.616c-0.162-1.495-1.515-1.848-1.562-1.121c-0.047,0.727-0.801,4.303-0.63,6.242
					c0.171,1.939,0.496,3.212,0.617,4.303c0.121,1.091-1.01,3.271-1.01,3.271s4.525,2.81,5.273,1.969
					c0.748-0.841,2.34-2.709,3.11-3.967c1.057-1.728,1.771-4,1.771-4l1.414-3.021c0,0,1.226-1.184,1.667-1.834
					C272.007,291.357,271.775,290.707,271.426,290.672z"/>
			</g>
		</g>
	</g>
	<g>
		<g>
			<path style="fill:#8BF6F1;" d="M383.369,358.155l-8.712,8.712l5.324,5.324c-0.011,0.034-0.023,0.068-0.045,0.091l-7.352,0.011
				v12.303l7.409,0c0.023,0.068,0.057,0.125,0.079,0.17l-5.132,5.132l8.712,8.712l5.132-5.132c0.091,0.045,0.193,0.102,0.295,0.136
				v7.069l12.314-0.011v-7.114c0.136-0.045,0.249-0.113,0.374-0.17l4.928,4.928l8.712-8.712l-5.03-5.03
				c0.045-0.136,0.079-0.261,0.136-0.385h6.956v-12.325h-7.25c-0.045-0.091-0.091-0.181-0.125-0.283l5.007-5.007l-8.711-8.712
				l-5.245,5.245c-0.045-0.023-0.102-0.034-0.17-0.057l0.011-7.261h-12.325l0,7.545c-0.034,0.011-0.057,0.034-0.079,0.034
				L383.369,358.155z M402.672,370.888c4.135,4.135,4.135,10.841-0.011,14.988c-4.135,4.135-10.841,4.135-14.976,0
				c-4.146-4.146-4.146-10.853-0.011-14.988C391.82,366.742,398.526,366.742,402.672,370.888z"/>
			<path style="fill:#8BF6F1;" d="M375.158,404.869h-6.588v4.026c-0.017,0.009-0.034,0.017-0.051,0.017l-2.784-2.776l-4.652,4.652
				l2.801,2.801c-0.017,0.034-0.026,0.069-0.034,0.094h-3.881v6.588h3.881c0.017,0.051,0.034,0.111,0.06,0.163l-2.673,2.673
				l4.661,4.652l2.69-2.69c0.068,0.034,0.137,0.051,0.206,0.077v3.727h6.588v-3.804c0.068-0.034,0.128-0.068,0.197-0.094l2.63,2.63
				l4.66-4.661l-2.741-2.741c0.017-0.051,0.034-0.103,0.06-0.154h3.787v-6.588h-3.967c-0.009-0.026-0.026-0.051-0.043-0.086
				l2.75-2.741l-4.661-4.661l-2.853,2.853c-0.017-0.009-0.034-0.009-0.043-0.017V404.869z M377.642,416.983
				c0,3.127-2.536,5.663-5.671,5.663c-3.127,0-5.663-2.536-5.663-5.663c0-3.135,2.536-5.671,5.663-5.671
				C375.107,411.311,377.642,413.847,377.642,416.983z"/>
		</g>
		<path style="fill:#8BF6F1;" d="M133.092,90.905h-9.739v5.952c-0.025,0.013-0.051,0.025-0.076,0.025l-4.116-4.103l-6.877,6.877
			l4.141,4.141c-0.025,0.051-0.038,0.101-0.051,0.139h-5.737v9.739h5.737c0.025,0.076,0.051,0.165,0.089,0.241l-3.951,3.951
			l6.889,6.877l3.977-3.977c0.101,0.051,0.203,0.076,0.304,0.114v5.509h9.739v-5.623c0.101-0.051,0.19-0.101,0.291-0.139
			l3.888,3.888l6.889-6.89l-4.053-4.053c0.025-0.076,0.051-0.152,0.089-0.228h5.598v-9.739h-5.864
			c-0.013-0.038-0.038-0.076-0.063-0.127l4.065-4.052l-6.89-6.89l-4.217,4.217c-0.025-0.013-0.051-0.013-0.063-0.025V90.905z
			 M136.765,108.812c0,4.623-3.749,8.371-8.384,8.371c-4.622,0-8.371-3.749-8.371-8.371c0-4.635,3.749-8.384,8.371-8.384
			C133.016,100.429,136.765,104.177,136.765,108.812z"/>
	</g>
	<g>
		<g>
			<circle style="fill:#5C3C99;" cx="57.958" cy="470.157" r="3.386"/>
			<circle style="fill:#5C3C99;" cx="471.497" cy="338.616" r="3.386"/>
			<circle style="fill:#5C3C99;" cx="445.584" cy="81.973" r="3.386"/>
			<circle style="fill:#5C3C99;" cx="411.126" cy="44.24" r="2.124"/>
			<circle style="fill:#5C3C99;" cx="286.037" cy="35.656" r="2.124"/>
			<circle style="fill:#5C3C99;" cx="34.306" cy="244.289" r="2.124"/>
			<path style="fill:#5C3C99;" d="M40.535,119.544c0,1.173-0.951,2.124-2.124,2.124c-1.173,0-2.124-0.951-2.124-2.124
				c0-1.173,0.951-2.124,2.124-2.124C39.584,117.42,40.535,118.371,40.535,119.544z"/>
			<path style="fill:#5C3C99;" d="M285.21,458.832c0,1.173-0.951,2.124-2.124,2.124c-1.173,0-2.124-0.951-2.124-2.124
				c0-1.173,0.951-2.124,2.124-2.124C284.259,456.708,285.21,457.659,285.21,458.832z"/>
			<path style="fill:#5C3C99;" d="M56.696,370.59c0,1.173-0.951,2.124-2.124,2.124c-1.173,0-2.124-0.951-2.124-2.124
				c0-1.173,0.951-2.124,2.124-2.124C55.746,368.466,56.696,369.417,56.696,370.59z"/>
			<path style="fill:#5C3C99;" d="M34.2,422.646c0,1.173-0.951,2.124-2.124,2.124c-1.173,0-2.124-0.951-2.124-2.124
				c0-1.173,0.951-2.124,2.124-2.124C33.249,420.522,34.2,421.473,34.2,422.646z"/>
			<circle style="fill:#5C3C99;" cx="433.435" cy="430.531" r="3.386"/>
			<circle style="fill:#5C3C99;" cx="262.603" cy="97.511" r="3.386"/>
			<circle style="fill:#5C3C99;" cx="203.7" cy="91.014" r="3.386"/>
			<path style="fill:#5C3C99;" d="M476.027,230.082c0,2.502-2.029,4.531-4.531,4.531s-4.531-2.028-4.531-4.531
				c0-2.502,2.028-4.531,4.531-4.531S476.027,227.579,476.027,230.082z"/>
			<path style="fill:#5C3C99;" d="M423.118,466.771c0,2.502-2.029,4.531-4.531,4.531c-2.502,0-4.531-2.028-4.531-4.531
				c0-2.502,2.028-4.531,4.531-4.531C421.089,462.24,423.118,464.269,423.118,466.771z"/>
			<path style="fill:#5C3C99;" d="M192.693,110.986c0,2.502-2.028,4.531-4.531,4.531c-2.502,0-4.531-2.029-4.531-4.531
				s2.028-4.531,4.531-4.531C190.665,106.455,192.693,108.484,192.693,110.986z"/>
			<path style="fill:#5C3C99;" d="M112.087,68.29c0,2.502-2.028,4.531-4.531,4.531c-2.502,0-4.531-2.028-4.531-4.531
				c0-2.502,2.028-4.531,4.531-4.531C110.059,63.76,112.087,65.788,112.087,68.29z"/>
		</g>
		<g style="opacity:0.58;">
			<g>
				<path style="fill:#FFFFFF;" d="M442.266,301.615h-5.698c-0.367,0-0.664-0.297-0.664-0.664v-5.697
					c0-0.367,0.297-0.664,0.664-0.664h5.698c0.367,0,0.664,0.297,0.664,0.664v5.697C442.93,301.318,442.633,301.615,442.266,301.615
					z"/>
				<path style="fill:#FFFFFF;" d="M451.664,301.615h-5.698c-0.367,0-0.664-0.297-0.664-0.664v-5.697
					c0-0.367,0.297-0.664,0.664-0.664h5.698c0.367,0,0.664,0.297,0.664,0.664v5.697
					C452.328,301.318,452.031,301.615,451.664,301.615z"/>
				<path style="fill:#FFFFFF;" d="M461.062,301.615h-5.698c-0.367,0-0.664-0.297-0.664-0.664v-5.697
					c0-0.367,0.297-0.664,0.664-0.664h5.698c0.367,0,0.664,0.297,0.664,0.664v5.697
					C461.726,301.318,461.429,301.615,461.062,301.615z"/>
			</g>
		</g>
		<g style="opacity:0.58;">
			<g>
				<path style="fill:#FFFFFF;" d="M57.294,421.053h-5.698c-0.367,0-0.664-0.297-0.664-0.664v-5.697
					c0-0.367,0.297-0.664,0.664-0.664h5.698c0.367,0,0.664,0.297,0.664,0.664v5.697C57.958,420.756,57.661,421.053,57.294,421.053z"
					/>
				<path style="fill:#FFFFFF;" d="M66.692,421.053h-5.698c-0.367,0-0.664-0.297-0.664-0.664v-5.697
					c0-0.367,0.297-0.664,0.664-0.664h5.698c0.367,0,0.664,0.297,0.664,0.664v5.697C67.356,420.756,67.059,421.053,66.692,421.053z"
					/>
				<path style="fill:#FFFFFF;" d="M76.09,421.053h-5.697c-0.367,0-0.664-0.297-0.664-0.664v-5.697c0-0.367,0.297-0.664,0.664-0.664
					h5.697c0.367,0,0.664,0.297,0.664,0.664v5.697C76.754,420.756,76.457,421.053,76.09,421.053z"/>
			</g>
		</g>
		<g style="opacity:0.58;">
			<g>
				<path style="fill:#FFFFFF;" d="M150.185,68.12h-5.698c-0.367,0-0.664-0.297-0.664-0.664v-5.697c0-0.367,0.297-0.664,0.664-0.664
					h5.698c0.367,0,0.664,0.297,0.664,0.664v5.697C150.849,67.822,150.551,68.12,150.185,68.12z"/>
				<path style="fill:#FFFFFF;" d="M159.583,68.12h-5.698c-0.367,0-0.664-0.297-0.664-0.664v-5.697c0-0.367,0.297-0.664,0.664-0.664
					h5.698c0.367,0,0.664,0.297,0.664,0.664v5.697C160.247,67.822,159.949,68.12,159.583,68.12z"/>
				<path style="fill:#FFFFFF;" d="M168.98,68.12h-5.697c-0.367,0-0.664-0.297-0.664-0.664v-5.697c0-0.367,0.297-0.664,0.664-0.664
					h5.697c0.367,0,0.664,0.297,0.664,0.664v5.697C169.645,67.822,169.347,68.12,168.98,68.12z"/>
			</g>
		</g>
	</g>
</g>
</svg>
